<svg id="Flat" height="512" viewBox="0 0 64 64" width="512" xmlns="http://www.w3.org/2000/svg" xmlns:xlink="http://www.w3.org/1999/xlink"><linearGradient id="linear-gradient" gradientUnits="userSpaceOnUse" x1="3.493" x2="60.507" y1="32" y2="32"><stop offset="0" stop-color="#9d3adf"/><stop offset=".20605" stop-color="#8542d8"/><stop offset=".63851" stop-color="#4857c6"/><stop offset="1" stop-color="#106ab6"/></linearGradient><path d="m27.41316 55.83608c-.14.05-.28.08-.42.12006-19.76-5.01-26.64-26.37006-22.21-48.07a2.5236 2.5236 0 0 1 3.01-1.89 27.59411 27.59411 0 0 0 12.33 0 29.75372 29.75372 0 0 0 5.78-2.03 2.39442 2.39442 0 0 1 2.18 0 27.59485 27.59485 0 0 0 18.09 2.03 2.53455 2.53455 0 0 1 3.03 1.89 57.089 57.089 0 0 1 .29005 22.67013 11.30826 11.30826 0 0 0 -14.43002 15.34982 14.94472 14.94472 0 0 0 -7.65003 9.92999zm9.56-14.78c-.0149 7.30392 8.75363 10.65384 13.86018 6.12992 3.5663-2.88582 3.56847-9.43475.02964-12.3399-5.08331-4.34396-13.60573-1.71774-13.88982 6.21001zm18.41 8.31c-1.33843-.89088-1.42014-1.26472-2.56992.07024-4.41855 4.08253-12.24387 3.62511-16.1-1.02039a11.948 11.948 0 0 0 -6.67006 10.30013 1.52079 1.52079 0 0 0 .41 1.11 1.4756 1.4756 0 0 0 1.08.47h27.47a1.51724 1.51724 0 0 0 1.5-1.58 11.70507 11.70507 0 0 0 -5.11999-9.34995z" fill="url(#linear-gradient)"/></svg>